<mxfile host="65bd71144e">
    <diagram id="y_a58r6X1c4ZzJk8QifR" name="Page-1">
        <mxGraphModel dx="838" dy="779" grid="1" gridSize="10" guides="1" tooltips="1" connect="1" arrows="1" fold="1" page="1" pageScale="1" pageWidth="850" pageHeight="1100" math="0" shadow="0">
            <root>
                <mxCell id="0"/>
                <mxCell id="1" parent="0"/>
                <mxCell id="5" value="Class -Scripture" style="swimlane;fontStyle=0;childLayout=stackLayout;horizontal=1;startSize=26;fillColor=none;horizontalStack=0;resizeParent=1;resizeParentMax=0;resizeLast=0;collapsible=1;marginBottom=0;html=1;" vertex="1" parent="1">
                    <mxGeometry x="10" y="160" width="210" height="170" as="geometry"/>
                </mxCell>
                <mxCell id="6" value="Fields: &lt;br&gt;Reference: String&lt;br&gt;Text: String&lt;br&gt;hidden : int&lt;br&gt;Method:&lt;br&gt;Scriptures(&amp;nbsp; String Text. String Reference, String HiddenWord)&lt;br&gt;Display( String Reference, int hidden)" style="text;strokeColor=none;fillColor=none;align=left;verticalAlign=top;spacingLeft=4;spacingRight=4;overflow=hidden;rotatable=0;points=[[0,0.5],[1,0.5]];portConstraint=eastwest;whiteSpace=wrap;html=1;" vertex="1" parent="5">
                    <mxGeometry y="26" width="210" height="144" as="geometry"/>
                </mxCell>
                <mxCell id="9" value="Class -Hide" style="swimlane;fontStyle=0;childLayout=stackLayout;horizontal=1;startSize=26;fillColor=none;horizontalStack=0;resizeParent=1;resizeParentMax=0;resizeLast=0;collapsible=1;marginBottom=0;html=1;" vertex="1" parent="1">
                    <mxGeometry x="10" y="370" width="210" height="170" as="geometry"/>
                </mxCell>
                <mxCell id="10" value="Fields: &lt;br&gt;HiddenWord: String&lt;br&gt;Index: String&lt;br&gt;Method:&lt;br&gt;HideWord(&amp;nbsp; String HiddenWord, String Index)&lt;br&gt;WordtoHide( String HideWord)" style="text;strokeColor=none;fillColor=none;align=left;verticalAlign=top;spacingLeft=4;spacingRight=4;overflow=hidden;rotatable=0;points=[[0,0.5],[1,0.5]];portConstraint=eastwest;whiteSpace=wrap;html=1;" vertex="1" parent="9">
                    <mxGeometry y="26" width="210" height="144" as="geometry"/>
                </mxCell>
                <mxCell id="11" value="Class -AllWordsHide" style="swimlane;fontStyle=0;childLayout=stackLayout;horizontal=1;startSize=26;fillColor=none;horizontalStack=0;resizeParent=1;resizeParentMax=0;resizeLast=0;collapsible=1;marginBottom=0;html=1;" vertex="1" parent="1">
                    <mxGeometry x="260" y="160" width="210" height="170" as="geometry"/>
                </mxCell>
                <mxCell id="12" value="Fields: &lt;br&gt;Words: String&lt;br&gt;Method:&lt;br&gt;AllWords:(&amp;nbsp; String&amp;nbsp; Words)" style="text;strokeColor=none;fillColor=none;align=left;verticalAlign=top;spacingLeft=4;spacingRight=4;overflow=hidden;rotatable=0;points=[[0,0.5],[1,0.5]];portConstraint=eastwest;whiteSpace=wrap;html=1;" vertex="1" parent="11">
                    <mxGeometry y="26" width="210" height="144" as="geometry"/>
                </mxCell>
            </root>
        </mxGraphModel>
    </diagram>
</mxfile>